<?xml version="1.0" standalone="no"?><!DOCTYPE svg PUBLIC "-//W3C//DTD SVG 1.1//EN" "http://www.w3.org/Graphics/SVG/1.1/DTD/svg11.dtd"><svg t="1641450430610" class="icon" viewBox="0 0 1024 1024" version="1.1" xmlns="http://www.w3.org/2000/svg" p-id="12235" width="400" height="400" xmlns:xlink="http://www.w3.org/1999/xlink"><defs><style type="text/css"></style></defs><path d="M921.670396 0h-819.148804c-56.31648 0-102.3936 46.07712-102.3936 102.3936v819.148804c0 56.31648 46.07712 102.3936 102.3936 102.3936h819.148804c56.31648 0 102.3936-46.07712 102.3936-102.3936v-819.148804c0-56.31648-46.07712-102.3936-102.3936-102.3936z m-730.834323 639.320042c0 53.75664-37.11768 79.35504-76.155241 79.355041-18.55884 0-36.47772-5.75964-50.55684-15.35904l17.27892-42.87732c8.95944 6.3996 19.1988 9.5994 28.15824 9.5994 14.07912 0 25.5984-8.95944 25.598401-28.7982v-237.425161h55.67652v235.50528z m-28.15824-267.503281a31.998 31.998 0 0 1-32.63796-32.63796c0-19.83876 14.07912-33.27792 32.63796-33.27792 20.47872 0 33.91788 13.43916 33.91788 33.27792 0 18.55884-13.43916 32.63796-33.91788 32.63796z m167.66952 263.023561c-34.55784 0-70.3956-10.87932-94.07412-31.998l19.1988-39.03756c21.11868 17.91888 52.47672 28.7982 77.43516 28.7982 19.1988 0 33.91788-7.03956 33.91788-21.75864 0-42.23736-119.67252-19.1988-119.03256-100.47372 0-47.35704 40.31748-69.11568 86.3946-69.11568 30.07812 0 60.7962 8.95944 83.834761 24.31848l-20.47872 40.31748c-21.75864-12.7992-47.35704-20.47872-67.195801-20.47872-17.91888 0-30.71808 5.75964-30.71808 19.83876 0 38.3976 121.5924 18.55884 121.592401 100.47372 0 46.71708-41.5974 69.11568-90.874321 69.11568z m238.065121 0c-72.31548 0-120.95244-46.71708-120.95244-116.47272 0-69.11568 48.63696-115.83276 120.95244-115.83276 71.67552 0 120.31248 46.71708 120.312481 115.83276 0 69.75564-48.63696 116.47272-120.312481 116.47272z m391.655522-1.91988h-56.31648v-126.71208c0-31.998-19.1988-51.83676-50.556841-51.83676-37.75764 0.63996-60.15624 28.15824-60.15624 65.91588v112.63296h-55.67652v-229.10568h55.67652v42.87732c15.999-30.07812 44.7972-44.15724 81.91488-44.7972 53.11668 0 85.11468 33.91788 85.114681 88.31448v142.71108z" fill="#6C63FF" p-id="12236"></path><path d="M568.412474 449.891882c-38.3976 0-64.63596 28.15824-64.63596 69.11568s26.23836 69.75564 64.63596 69.75564c37.75764 0 64.63596-28.7982 64.63596-69.75564s-26.87832-69.11568-64.63596-69.11568z" fill="#6C63FF" p-id="12237"></path></svg>